<?xml version="1.0" standalone="no"?>
<!DOCTYPE svg PUBLIC "-//W3C//DTD SVG 20010904//EN"
 "http://www.w3.org/TR/2001/REC-SVG-20010904/DTD/svg10.dtd">
<svg version="1.0" xmlns="http://www.w3.org/2000/svg"
 width="3464.000000pt" height="3464.000000pt" viewBox="0 0 3464.000000 3464.000000"
 preserveAspectRatio="xMidYMid meet">

<g transform="translate(0.000000,3464.000000) scale(0.100000,-0.100000)"
fill="#000000" stroke="none">
<path d="M11015 26396 c-20 -14 -20 -28 -23 -633 -3 -499 -1 -621 10 -635 12
-17 362 -18 6317 -19 l6305 -2 18 23 c18 22 18 53 16 632 -3 566 -4 611 -20
622 -13 10 -100 15 -325 19 -170 3 -3001 6 -6293 7 -5278 1 -5987 0 -6005 -14z"/>
<path d="M11760 24269 c-18 -4 -37 -12 -43 -18 -7 -7 -12 -205 -15 -630 l-5
-619 25 -16 c22 -14 509 -16 5605 -16 3069 0 5588 3 5597 6 10 4 22 17 26 30
5 13 6 288 3 634 -6 577 -7 612 -24 621 -21 11 -11116 18 -11169 8z"/>
<path d="M16718 22163 c-9 -2 -20 -14 -24 -26 -8 -25 -6 -7665 2 -7679 12 -19
52 -4 153 56 309 186 446 260 486 260 33 0 76 -20 245 -116 113 -63 239 -137
280 -162 80 -50 114 -57 130 -27 7 14 10 1227 10 3844 0 3545 -1 3826 -17
3838 -13 12 -126 14 -632 15 -339 1 -624 0 -633 -3z"/>
<path d="M12448 22126 c-12 -6 -25 -22 -28 -36 -11 -38 -6 -12563 4 -12579 18
-27 83 3 381 176 256 149 486 284 620 363 77 45 223 131 325 190 102 59 309
180 460 269 151 89 286 164 298 168 14 3 28 0 36 -8 9 -11 10 -163 5 -639 -4
-344 -7 -876 -8 -1182 -1 -546 -1 -558 19 -578 19 -19 22 -19 56 -5 45 18 359
193 549 305 77 46 255 149 395 230 301 174 385 222 670 388 118 69 323 188
455 265 132 77 326 191 431 253 138 82 201 114 224 114 23 0 75 -26 179 -89
80 -48 189 -113 241 -143 138 -81 348 -203 655 -383 277 -163 1118 -642 1350
-770 72 -39 176 -98 233 -130 96 -54 103 -57 121 -41 17 16 18 63 13 1199 -5
1116 -4 1184 13 1200 11 12 25 15 39 11 11 -3 102 -54 201 -114 99 -59 268
-158 375 -220 202 -117 369 -214 650 -380 805 -474 809 -477 837 -462 19 10
19 119 21 6304 1 3461 -2 6299 -7 6306 -4 7 -26 17 -47 22 -60 14 -3323 13
-3362 -1 -18 -6 -32 -18 -33 -27 0 -10 -1 -2062 -2 -4562 l-2 -4545 -28 -3
c-39 -5 -194 82 -982 549 -198 117 -377 221 -397 231 -81 39 -94 34 -417 -158
-163 -97 -334 -200 -381 -229 -98 -60 -363 -216 -400 -235 -14 -7 -88 -50
-166 -96 -77 -46 -148 -84 -158 -84 -9 0 -21 11 -25 23 -6 14 -7 1915 -4 4563
6 4293 5 4540 -11 4557 -11 10 -34 17 -59 18 -23 0 -779 1 -1680 3 -1159 2
-1644 -1 -1659 -8z m2083 -1285 l23 -18 2 -4274 c2 -3541 0 -4279 -11 -4305
-14 -35 -8 -31 -375 -239 -124 -71 -263 -150 -310 -176 -47 -27 -93 -49 -102
-49 -10 0 -23 10 -29 22 -10 18 -12 1039 -10 4523 l2 4500 20 18 c19 15 54 17
394 17 348 0 374 -1 396 -19z m6411 1 c11 -11 13 -840 13 -4535 l0 -4522 -23
-3 c-26 -4 -97 31 -252 123 -58 34 -161 95 -230 135 -214 125 -278 170 -297
209 -17 34 -18 237 -21 4303 l-2 4268 20 20 c20 20 29 21 400 18 295 -2 382
-6 392 -16z m-3555 -8544 c15 -7 75 -42 133 -77 58 -35 142 -86 188 -113 45
-26 121 -71 170 -99 48 -29 112 -66 142 -84 30 -17 150 -87 265 -155 116 -68
257 -150 315 -183 183 -103 198 -115 210 -155 6 -22 10 -203 10 -455 l0 -417
-24 -11 c-21 -10 -39 -3 -148 56 -167 92 -795 459 -993 580 -241 147 -251 153
-288 163 -43 12 -84 -1 -174 -58 -360 -229 -1274 -753 -1305 -748 l-23 3 -9
434 c-6 304 -5 440 2 457 13 27 24 34 282 186 451 266 558 329 805 476 394
235 378 228 442 200z"/>
</g>
</svg>
